# xmcd
#
# Track frame offsets: 
#        300
#        20593
#        46123
#        67585
#        80945
#        112740
#        135301
#        151846
#        176579
#        192875
#
# Disc length: 3047 seconds
#
# Revision: 0
# Processed by: cddbd v1.5.2PL0 Copyright (c) Steve Scherf et al.
# Submitted via: ExactAudioCopy v1.0b3
#
DISCID=720be30a
DTITLE=Big Jack Johnson and The Oilers - We Got To Stop This Killin' 
DYEAR=1996
DGENRE=Electric Blues
TTITLE0=Nieokreślony twórca - We Got To Stop This Killin' 
TTITLE1=Nieokreślony twórca - Hummin' Blues 
TTITLE2=Nieokreślony twórca - Breakdown Blues 
TTITLE3=Nieokreślony twórca - It's The Fourth Of July 
TTITLE4=Nieokreślony twórca - Lonesome Road 
TTITLE5=Nieokreślony twórca - No Good Cow 
TTITLE6=Nieokreślony twórca - Cracklin' Bread 
TTITLE7=Nieokreślony twórca - Sweet Home Mississippi 
TTITLE8=Nieokreślony twórca - Big Foot Woman 
TTITLE9=Nieokreślony twórca - Black Rooster 
EXTD=
EXTT0=
EXTT1=
EXTT2=
EXTT3=
EXTT4=
EXTT5=
EXTT6=
EXTT7=
EXTT8=
EXTT9=
PLAYORDER=
